<svg width="61" height="75" viewBox="0 0 61 75" fill="none" xmlns="http://www.w3.org/2000/svg">
<g clip-path="url(#clip0_1_16)">
<path d="M33.2677 36.3479L57.8395 36.4302L57.7116 74.9998L33.1399 74.9175L33.2677 36.3479ZM3.09659 36.2474L2.9687 74.817L27.5404 74.8993L27.6683 36.3297L3.09659 36.2474ZM33.4961 33.5871L60.9635 33.6785L61 22.498L33.5418 22.4066L33.5052 33.5871H33.4961ZM0.0365379 22.2969L0 33.4774L27.4582 33.5688L27.4948 22.3883L0.0365379 22.2969ZM29.1298 16.8117V16.7935C28.9837 15.4222 28.5726 14.1057 28.052 12.8716C27.5313 11.6283 26.9102 10.449 26.1885 9.32454C24.7544 7.0665 22.9915 4.99129 20.7992 3.26347C19.6939 2.40414 18.4973 1.61794 17.1271 1.042C15.7752 0.447774 14.2406 0.0272478 12.5964 -0.000177868C10.9614 -0.0276035 9.22582 0.383781 7.74603 1.18827C7.01527 1.58137 6.31192 2.1116 5.76385 2.59612C5.14271 3.14463 4.60377 3.72057 4.08311 4.45192C3.57158 5.17413 3.12399 6.06089 2.90476 7.08478C2.66727 8.09953 2.71294 9.24226 3.01438 10.2204C3.30668 11.2078 3.79081 12.0305 4.3206 12.707C4.8504 13.3927 5.43501 13.9503 6.04702 14.4166C7.2619 15.3582 8.50419 16.0438 9.78302 16.5923C11.0527 17.1409 12.3315 17.5614 13.6195 17.8996C16.1954 18.5761 18.7805 18.9418 21.3564 19.1521C22.6444 19.2435 23.9323 19.2983 25.2203 19.3075H26.1885L26.6727 19.2983H26.965L27.0928 19.2801C27.1751 19.2801 27.2573 19.2618 27.3395 19.2435C27.8784 19.1338 28.3534 18.8412 28.7005 18.4024C29.0385 17.9728 29.2303 17.3694 29.1481 16.8026L29.1298 16.8117ZM27.2664 17.1226C27.2755 17.1683 27.2938 17.214 27.2481 17.2688C27.2025 17.3237 27.0928 17.3511 27.0106 17.3511L26.2799 17.2688L25.3664 17.1591C24.1515 17.0037 22.9458 16.7843 21.7492 16.5101C19.3651 15.9798 17.0449 15.2211 14.8709 14.2612C12.7243 13.3013 10.6417 12.122 9.21668 10.7415C8.52246 10.0559 8.03833 9.33368 7.98353 8.86745C7.94699 8.6389 7.96526 8.47435 8.01093 8.27323C8.06574 8.0721 8.19362 7.80699 8.40371 7.51445C8.61381 7.22191 8.93351 6.88366 9.25322 6.59112C9.63687 6.24373 9.94744 6.02432 10.322 5.80492C11.0344 5.38439 11.8017 5.1467 12.6695 5.09185C14.4142 4.96386 16.506 5.63122 18.4516 6.72825C20.4064 7.82527 22.2607 9.33368 23.8318 11.0889C25.3847 12.8533 26.7275 14.9011 27.2664 17.1134V17.1226ZM31.1668 18.4207C31.5048 18.8595 31.9798 19.1612 32.5187 19.2709C32.6009 19.2892 32.6831 19.2983 32.7653 19.3075H32.8932L33.1855 19.3258H33.6697L34.6379 19.344C35.9259 19.344 37.2138 19.2983 38.5018 19.2069C41.0777 19.0149 43.6719 18.6675 46.2478 18.0093C47.5358 17.6802 48.8237 17.2688 50.0934 16.7295C51.3723 16.1992 52.6237 15.5136 53.8386 14.5811C54.4506 14.1149 55.0352 13.5572 55.5741 12.8807C56.1039 12.2042 56.5972 11.3815 56.8986 10.4033C57.2092 9.4251 57.2549 8.29151 57.0356 7.27676C56.8164 6.25287 56.378 5.36611 55.8664 4.63476C55.3549 3.89426 54.816 3.31833 54.1948 2.76067C53.6559 2.27615 52.9434 1.73678 52.2218 1.34368C50.7511 0.520909 49.0247 0.0912409 47.3805 0.118667C45.7363 0.127808 44.2017 0.539193 42.8407 1.11513C41.4614 1.68193 40.2556 2.46813 39.1503 3.30918C36.9581 5.02786 35.1768 7.09392 33.7245 9.33368C32.9937 10.4581 32.3634 11.6374 31.8336 12.8716C31.3038 14.1057 30.8836 15.413 30.7284 16.7843V16.8026C30.6462 17.3603 30.8288 17.9728 31.1668 18.4024V18.4207ZM32.5918 17.1317C33.149 14.9194 34.51 12.8807 36.072 11.1346C37.6523 9.38854 39.5157 7.88927 41.4796 6.81052C43.4344 5.72264 45.5353 5.07357 47.2709 5.21069C48.1387 5.27469 48.906 5.51238 49.6184 5.94205C49.9838 6.16145 50.2944 6.38086 50.678 6.73739C50.9886 7.02993 51.3175 7.36818 51.5184 7.66072C51.7285 7.9624 51.8473 8.21837 51.9112 8.42864C51.966 8.62976 51.9751 8.78517 51.9386 9.02286C51.8747 9.4891 51.3905 10.2022 50.6872 10.8878C49.2531 12.2591 47.1613 13.4292 45.0055 14.3709C42.8315 15.3125 40.5022 16.053 38.1181 16.5741C36.9215 16.8392 35.7158 17.0494 34.5009 17.1957L33.5875 17.3054L32.8476 17.3785C32.7653 17.3785 32.6649 17.3511 32.6192 17.2963C32.5735 17.2414 32.5827 17.1957 32.6009 17.15L32.5918 17.1317Z" fill="white"/>
</g>
<defs>
<clipPath id="clip0_1_16">
<rect width="61" height="75" fill="white"/>
</clipPath>
</defs>
</svg>
